<svg xmlns="http://www.w3.org/2000/svg" width="23" height="24" viewBox="0 0 23 24">
  <g id="Group_3813" data-name="Group 3813" transform="translate(-1256 -173)">
    <path id="Line_2" data-name="Line 2" d="M0,22.5a1.5,1.5,0,0,1-1.034-.414,1.5,1.5,0,0,1-.052-2.121l20-21a1.5,1.5,0,0,1,2.121-.052,1.5,1.5,0,0,1,.052,2.121l-20,21A1.5,1.5,0,0,1,0,22.5Z" transform="translate(1257.5 174.5)" fill="#1c1c1c"/>
    <path id="Line_3" data-name="Line 3" d="M20,22.5a1.5,1.5,0,0,1-1.086-.466l-20-21a1.5,1.5,0,0,1,.052-2.121,1.5,1.5,0,0,1,2.121.052l20,21A1.5,1.5,0,0,1,20,22.5Z" transform="translate(1257.5 174.5)" fill="#1c1c1c"/>
  </g>
</svg>
