<svg id="轉外框" xmlns="http://www.w3.org/2000/svg" xmlns:xlink="http://www.w3.org/1999/xlink" viewBox="0 0 192 192"><defs><style>.cls-1{fill:none;}.cls-2{clip-path:url(#clip-path);}.cls-3{fill:#00a19b;}</style><clipPath id="clip-path"><rect class="cls-1" width="192" height="192"/></clipPath></defs><g class="cls-2"><path class="cls-3" d="M166.45,172H25.55A7.39,7.39,0,0,1,19,161.22L89.43,24a7.38,7.38,0,0,1,13.14,0L173,161.22A7.39,7.39,0,0,1,166.45,172Zm-139.9-8h138.9L96,28.74Zm70-136.31Z"/><path class="cls-3" d="M89.29,141.09a6.72,6.72,0,0,1,13.43,0,6.72,6.72,0,0,1-13.43,0Zm3.47-16.91L91,82.11c-.19-3.85,1.5-5.92,5.26-5.92s5.44,2.07,5.26,5.92l-1.79,42.07c-.09,2.26-1.13,3.57-3.47,3.57S92.85,126.44,92.76,124.18Z"/></g></svg>